<?xml version="1.0" standalone="no"?>
<!DOCTYPE svg PUBLIC "-//W3C//DTD SVG 20010904//EN"
 "http://www.w3.org/TR/2001/REC-SVG-20010904/DTD/svg10.dtd">
<svg version="1.0" xmlns="http://www.w3.org/2000/svg"
 width="250.000000pt" height="250.000000pt" viewBox="0 0 250.000000 250.000000"
 preserveAspectRatio="xMidYMid meet">
<metadata>
Created by potrace 1.14, written by Peter Selinger 2001-2017
</metadata>
<g transform="translate(0.000000,250.000000) scale(0.100000,-0.100000)"
fill="#000000" stroke="none">
<path d="M811 2487 c-6 -8 -8 -17 -4 -20 3 -4 -6 -24 -20 -45 -32 -49 -112
-81 -157 -62 -15 6 -43 13 -61 14 -32 2 -52 -4 -176 -53 -28 -11 -74 -23 -102
-25 -47 -5 -52 -3 -73 24 -15 21 -27 28 -42 24 -15 -3 -31 5 -56 31 -33 34
-63 45 -75 26 -3 -6 13 -34 35 -63 22 -29 43 -64 45 -78 3 -14 12 -45 20 -70
16 -50 24 -154 30 -370 8 -303 7 -281 15 -230 4 25 8 117 9 205 5 276 7 288
44 247 13 -15 20 -52 28 -153 9 -116 18 -329 19 -438 0 -19 2 -32 5 -29 3 3 8
86 11 184 4 151 7 213 13 362 1 7 12 1 24 -14 33 -38 49 -24 46 37 -2 27 0 51
3 54 3 4 26 1 49 -5 85 -23 108 -22 133 5 l23 25 7 -37 c3 -21 6 -52 6 -69 0
-17 7 -37 15 -44 12 -10 15 -29 14 -70 -2 -39 3 -64 14 -80 16 -23 15 -32 -11
-90 -17 -40 -19 -78 -4 -133 10 -39 7 -45 -28 -52 -11 -2 -37 -17 -57 -34 -21
-17 -53 -34 -71 -37 -18 -4 -40 -17 -48 -30 -9 -12 -23 -24 -31 -26 -10 -2
-21 -21 -27 -47 -10 -40 -17 -48 -68 -75 -60 -32 -69 -48 -43 -76 16 -18 18
-27 29 -110 6 -47 18 -217 20 -282 2 -59 12 -53 16 10 3 60 8 161 9 200 1 22
2 22 30 7 16 -8 43 -16 61 -17 17 -1 36 -8 42 -15 14 -17 25 -331 27 -747 1
-115 3 -207 5 -205 2 2 7 157 11 344 10 544 11 565 23 565 9 0 13 -39 16 -137
3 -104 16 -83 16 25 0 82 3 102 14 102 8 0 18 -5 21 -10 4 -6 9 -82 11 -168 3
-86 6 -193 9 -237 2 -44 4 -136 4 -204 1 -217 13 -122 17 146 3 142 7 276 9
298 1 22 3 67 4 100 1 43 4 56 11 45 5 -8 10 -71 10 -139 0 -68 3 -121 7 -118
4 4 8 66 10 139 1 72 4 133 7 135 2 2 20 6 40 9 34 4 41 -2 37 -28 0 -5 4 -8
9 -8 6 0 10 11 10 24 0 21 26 44 37 32 8 -8 11 -96 12 -355 1 -145 3 -262 5
-260 6 5 20 381 20 521 0 60 3 108 8 108 4 0 9 -10 9 -22 1 -13 3 -47 5 -76 8
-109 12 -199 13 -276 2 -150 18 -60 22 124 3 115 16 203 18 121 0 -24 4 -41 7
-38 7 7 10 44 13 147 l1 66 65 28 c58 25 95 56 95 78 0 15 -39 8 -74 -13 l-35
-20 1 101 c1 95 3 104 30 141 24 33 91 91 118 101 4 2 10 12 12 23 4 23 -18
27 -48 9 -12 -7 -40 -15 -63 -18 l-42 -5 5 117 c3 64 5 125 5 134 1 17 3 17
31 0 16 -10 39 -31 51 -46 l21 -27 24 22 c23 21 24 21 25 3 0 -10 2 -35 4 -54
2 -19 7 -133 9 -254 5 -220 15 -302 17 -145 1 46 3 102 4 124 2 22 6 119 10
215 4 96 7 180 8 187 1 14 105 119 111 112 6 -6 20 -279 19 -363 0 -34 3 -53
7 -45 5 8 10 110 11 227 3 180 6 223 24 278 30 95 53 82 46 -26 -2 -19 -10
-43 -18 -52 -15 -16 -14 -20 3 -39 10 -12 18 -22 16 -23 -2 0 0 -9 4 -19 6
-16 2 -69 -9 -122 -3 -11 2 -35 9 -53 7 -18 13 -36 13 -40 -6 -37 3 -242 9
-238 5 3 8 37 7 76 -1 38 1 70 5 70 13 0 43 -52 43 -75 0 -12 -13 -37 -29 -54
-15 -17 -29 -37 -30 -44 -2 -7 -10 -30 -18 -52 -8 -22 -15 -59 -16 -83 0 -62
54 -161 105 -189 20 -11 30 -86 40 -303 6 -119 14 -159 16 -74 0 27 2 56 3 64
2 8 6 62 10 120 7 101 14 128 33 117 5 -3 8 -72 8 -154 -1 -81 2 -159 6 -173
5 -16 8 5 9 60 2 89 7 247 9 266 1 6 21 15 46 21 51 12 55 7 55 -63 0 -25 4
-43 8 -40 4 2 7 32 7 65 -1 44 3 61 12 61 7 0 13 -6 14 -12 1 -18 9 -219 12
-303 2 -38 4 -143 5 -232 1 -90 5 -163 10 -163 4 0 8 91 8 203 2 239 11 478
20 501 3 9 17 16 33 16 14 0 36 3 49 6 22 6 22 5 22 -92 0 -53 2 -95 5 -93 2
3 6 43 9 90 2 46 5 87 5 92 1 4 14 7 29 7 15 0 33 5 40 12 18 18 23 6 31 -79
0 -7 5 -13 9 -13 5 0 8 25 7 55 -2 31 2 58 6 61 5 3 10 -19 10 -48 2 -76 8
-228 12 -335 4 -108 16 -136 18 -42 1 35 3 107 4 159 1 52 5 149 9 215 6 105
9 123 29 142 l22 23 2 -103 c3 -195 15 -552 19 -556 2 -2 4 65 5 150 2 361 9
661 18 735 0 5 22 25 47 43 28 19 44 37 41 45 -3 8 1 22 9 33 9 10 12 12 8 4
-5 -9 -3 -12 4 -7 7 4 12 16 12 27 0 11 9 38 21 60 l20 41 -22 5 -21 6 7 241
c12 424 20 526 46 582 23 49 26 106 5 98 -8 -3 -20 -18 -26 -34 -7 -16 -23
-36 -36 -45 -14 -9 -22 -20 -18 -26 7 -13 -37 -71 -79 -104 -33 -24 -34 -24
-93 -10 -32 7 -76 16 -96 20 -30 5 -44 15 -68 50 -34 49 -53 54 -133 36 -34
-8 -42 -6 -71 20 -37 32 -67 37 -87 13 -9 -11 -22 -14 -43 -9 -85 18 -103 17
-167 -10 -35 -14 -81 -28 -102 -30 -21 -2 -64 -16 -96 -31 -47 -21 -63 -24
-80 -15 -30 16 -71 74 -71 101 0 16 -4 21 -16 16 -9 -3 -22 -6 -30 -6 -8 0
-14 -5 -14 -11 0 -6 -14 -28 -30 -50 -17 -21 -33 -47 -35 -59 -5 -27 -44 -82
-55 -75 -4 3 -33 -8 -65 -24 l-57 -29 6 69 c3 38 10 77 15 88 17 31 4 52 -25
41 -22 -9 -24 -7 -25 23 -2 99 -20 137 -48 104z m-6 -107 c3 -5 1 -10 -4 -10
-6 0 -11 5 -11 10 0 6 2 10 4 10 3 0 8 -4 11 -10z m35 -18 c0 -13 -12 -22 -22
-16 -10 6 -1 24 13 24 5 0 9 -4 9 -8z m1565 -72 c3 -5 1 -10 -4 -10 -6 0 -11
5 -11 10 0 6 2 10 4 10 3 0 8 -4 11 -10z m-2 -40 c-3 -12 -8 -19 -11 -16 -5 6
5 36 12 36 2 0 2 -9 -1 -20z m-1648 1 c3 -5 1 -12 -5 -16 -5 -3 -10 1 -10 9 0
18 6 21 15 7z m75 -11 c0 -5 -9 -10 -19 -10 -11 0 -23 5 -26 10 -4 6 5 10 19
10 14 0 26 -4 26 -10z m378 -2 c-5 -13 -88 -19 -88 -6 0 4 17 9 38 11 20 2 41
4 45 5 5 1 7 -4 5 -10z m-33 -28 c3 -5 -3 -10 -14 -10 -12 0 -21 5 -21 10 0 6
6 10 14 10 8 0 18 -4 21 -10z m281 -43 c2 -12 6 -48 9 -79 5 -56 4 -58 -18
-58 -13 0 -34 11 -47 25 -13 14 -20 25 -16 25 3 0 -1 14 -9 31 -18 34 -14 45
34 86 28 24 37 18 47 -30z m-361 29 c17 -9 22 -16 15 -21 -6 -4 -19 0 -28 8
-9 8 -24 17 -32 20 -12 4 -12 6 1 6 9 1 29 -5 44 -13z m-71 -22 c3 -8 2 -12
-4 -9 -6 3 -10 10 -10 16 0 14 7 11 14 -7z m-199 -14 c3 -5 1 -10 -4 -10 -6 0
-11 5 -11 10 0 6 2 10 4 10 3 0 8 -4 11 -10z m797 -14 c13 -20 8 -35 -13 -41
-12 -4 -35 -20 -50 -36 -42 -43 -51 -38 -44 27 3 31 7 60 10 64 7 11 88 -1 97
-14z m-492 4 c0 -5 -2 -10 -4 -10 -3 0 -8 5 -11 10 -3 6 -1 10 4 10 6 0 11 -4
11 -10z m-230 -20 c0 -5 -4 -10 -9 -10 -6 0 -13 5 -16 10 -3 6 1 10 9 10 9 0
16 -4 16 -10z m172 -65 c52 -44 78 -74 83 -94 3 -16 15 -37 25 -46 16 -14 17
-21 8 -39 -6 -11 -12 -36 -14 -54 -1 -19 -10 -42 -19 -52 -14 -16 -20 -16 -41
-5 -15 7 -49 11 -85 9 l-61 -3 8 27 c4 15 6 52 4 82 -7 137 -3 240 10 240 3 0
39 -29 82 -65z m-128 19 c-2 -20 -8 -44 -13 -53 -4 -9 -6 -64 -4 -123 4 -114
-5 -152 -35 -160 -17 -5 -18 -3 -7 29 12 36 13 162 1 249 -7 48 -6 52 21 72
38 29 42 28 37 -14z m1426 -21 c1 -65 8 -282 13 -416 2 -53 -2 -99 -9 -116
-16 -38 -80 -109 -116 -127 -27 -14 -28 -14 -29 13 l-2 28 -4 -28 c-4 -26 -7
-27 -46 -25 l-42 3 1 55 c4 189 7 212 25 229 10 9 23 29 29 45 6 16 13 27 16
24 2 -3 7 -63 9 -133 4 -128 14 -181 16 -89 4 149 7 210 13 314 8 159 10 165
62 201 24 16 47 41 50 54 9 38 12 31 14 -32z m-1684 36 c3 -6 14 -9 23 -6 11
2 18 -1 18 -10 0 -8 -7 -11 -19 -7 -10 3 -18 1 -18 -3 0 -5 -16 -9 -35 -9 -19
0 -35 4 -35 9 0 4 6 5 13 1 9 -6 9 -4 -1 8 -11 14 -10 17 5 21 31 8 42 7 49
-4z m1045 -2 c14 -11 12 -15 -13 -35 l-28 -24 0 30 c0 42 12 51 41 29z m-547
-23 c5 -14 4 -15 -9 -4 -17 14 -19 20 -6 20 5 0 12 -7 15 -16z m441 -97 c-11
-11 -41 -39 -67 -64 l-48 -44 0 48 c0 55 4 62 44 83 16 8 41 30 55 48 l26 32
5 -42 c5 -35 2 -46 -15 -61z m184 -38 c2 -115 1 -122 -20 -145 -18 -20 -21
-29 -13 -42 6 -9 15 -15 19 -14 17 8 25 -28 25 -122 0 -55 2 -97 5 -95 2 3 6
51 7 107 2 56 7 103 12 105 5 1 15 -15 22 -35 7 -20 24 -54 38 -75 14 -21 26
-47 26 -58 0 -11 4 -26 9 -34 14 -22 -9 -77 -50 -117 l-37 -36 -20 38 c-11 22
-41 66 -66 98 -25 33 -46 71 -47 85 -4 82 -7 109 -13 120 -4 6 -9 25 -11 41
-3 23 3 36 27 59 29 27 30 30 20 74 -8 39 -6 51 9 77 11 17 19 37 19 45 0 23
23 66 30 56 3 -6 7 -65 9 -132z m109 108 l49 -23 -17 -35 c-17 -32 -95 -119
-107 -119 -3 0 -3 33 0 73 4 39 7 84 7 100 0 33 5 33 68 4z m-693 -17 c0 -7
-6 -15 -12 -17 -8 -3 -13 4 -13 17 0 13 5 20 13 18 6 -3 12 -11 12 -18z m966
-44 c1 -6 3 -27 5 -46 2 -19 5 -57 7 -83 l4 -49 -46 -20 c-40 -17 -49 -18 -71
-6 -22 12 -25 21 -26 68 -1 30 -5 74 -9 98 -10 62 1 71 75 59 33 -5 60 -15 61
-21z m-1388 7 c-3 -10 -10 -23 -15 -30 -6 -7 -6 -18 -2 -24 4 -8 3 -9 -4 -5
-7 4 -12 2 -12 -3 0 -6 9 -11 21 -11 12 0 19 -5 16 -12 -5 -14 -40 -12 -45 3
-2 5 -9 15 -15 22 -18 19 -19 57 -2 57 8 0 15 5 15 10 0 6 11 10 25 10 19 0
23 -4 18 -17z m920 -32 c-6 -25 -30 -34 -37 -14 -8 20 1 33 24 33 13 0 17 -5
13 -19z m-1003 -10 c0 -17 -3 -18 -25 -8 -21 10 -22 13 -7 19 27 11 32 9 32
-11z m110 -11 c13 -8 13 -10 -2 -10 -9 0 -20 5 -23 10 -8 13 5 13 25 0z m505
-39 c-3 -6 -11 -11 -17 -11 -6 0 -6 6 2 15 14 17 26 13 15 -4z m705 5 c0 -3
-4 -8 -10 -11 -5 -3 -10 -1 -10 4 0 6 5 11 10 11 6 0 10 -2 10 -4z m-80 -10
c0 -3 -4 -8 -10 -11 -5 -3 -10 -1 -10 4 0 6 5 11 10 11 6 0 10 -2 10 -4z
m-1259 -31 c5 4 9 1 9 -4 0 -6 -7 -11 -15 -11 -8 0 -15 -7 -15 -17 0 -9 -3
-13 -7 -9 -10 10 -14 38 -7 56 4 13 7 12 15 -3 6 -9 14 -15 20 -12z m121 -7
c-9 -9 -12 -7 -12 12 0 19 3 21 12 12 9 -9 9 -15 0 -24z m763 22 c3 -5 1 -10
-4 -10 -6 0 -11 5 -11 10 0 6 2 10 4 10 3 0 8 -4 11 -10z m-800 -20 c-4 -7
-22 -7 -45 0 -3 1 4 5 15 9 22 9 38 4 30 -9z m811 -30 c8 0 14 -4 14 -9 0 -6
-10 -8 -21 -6 -28 6 -33 11 -23 26 6 10 9 10 12 1 2 -7 10 -12 18 -12z m294 0
c0 -5 -7 -7 -15 -4 -17 7 -21 -11 -5 -21 14 -8 -6 -35 -26 -35 -15 0 -11 35 7
56 13 16 39 19 39 4z m112 -45 c0 -5 -5 -11 -11 -13 -6 -2 -11 4 -11 13 0 9 5
15 11 13 6 -2 11 -8 11 -13z m-74 -16 c19 -31 9 -33 -18 -4 -16 17 -19 25 -9
25 8 0 20 -9 27 -21z m-1131 5 c-3 -3 -12 -4 -19 -1 -8 3 -5 6 6 6 11 1 17 -2
13 -5z m1243 2 c0 -3 -4 -8 -10 -11 -5 -3 -10 -1 -10 4 0 6 5 11 10 11 6 0 10
-2 10 -4z m-1302 -24 c27 11 33 10 45 -6 8 -11 23 -16 41 -14 25 3 29 0 30
-24 2 -26 1 -26 -17 -10 -15 13 -21 14 -35 4 -29 -21 -46 -26 -49 -15 -2 6
-13 8 -25 5 -14 -3 -19 -1 -14 6 4 7 3 12 -2 12 -6 0 -12 -7 -16 -15 -3 -8
-10 -15 -16 -15 -7 0 -7 7 1 21 6 12 9 33 6 47 -4 23 -4 24 7 10 11 -15 17
-16 44 -6z m877 -22 c3 -5 2 -10 -4 -10 -5 0 -13 5 -16 10 -3 6 -2 10 4 10 5
0 13 -4 16 -10z m-40 -10 c3 -5 1 -10 -4 -10 -6 0 -11 5 -11 10 0 6 2 10 4 10
3 0 8 -4 11 -10z m105 -10 c0 -5 -4 -10 -10 -10 -5 0 -10 5 -10 10 0 6 5 10
10 10 6 0 10 -4 10 -10z m-789 -22 c6 -19 9 -208 2 -208 -4 0 -8 35 -8 78 0
42 -3 89 -6 105 -4 15 -4 27 2 27 5 0 9 -1 10 -2z m100 -90 c0 -40 2 -90 5
-111 2 -25 0 -37 -7 -35 -15 5 -24 218 -10 218 7 0 11 -28 12 -72z m974 42 c3
-5 -1 -10 -9 -10 -9 0 -16 5 -16 10 0 6 4 10 9 10 6 0 13 -4 16 -10z m-1025
-30 c0 -11 -4 -20 -9 -20 -5 0 -7 9 -4 20 3 11 7 20 9 20 2 0 4 -9 4 -20z
m1060 16 c0 -3 -4 -8 -10 -11 -5 -3 -10 -1 -10 4 0 6 5 11 10 11 6 0 10 -2 10
-4z m-1296 -69 c-3 -9 -12 -13 -20 -10 -19 7 -18 21 4 25 22 5 24 4 16 -15z
m236 -42 c0 -39 -3 -53 -12 -50 -9 4 -12 22 -10 55 5 67 22 64 22 -5z m1159
-76 l1 -57 -35 -6 c-19 -4 -38 -6 -42 -4 -19 7 0 96 30 146 l32 53 7 -38 c4
-21 7 -63 7 -94z m-1364 101 c3 -5 1 -10 -4 -10 -6 0 -11 5 -11 10 0 6 2 10 4
10 3 0 8 -4 11 -10z m65 0 c0 -5 -2 -10 -4 -10 -3 0 -8 5 -11 10 -3 6 -1 10 4
10 6 0 11 -4 11 -10z m45 -10 c-3 -5 -11 -10 -16 -10 -6 0 -7 5 -4 10 3 6 11
10 16 10 6 0 7 -4 4 -10z m-13 -29 c13 -11 -9 -34 -26 -28 -9 4 -18 5 -20 4
-1 -1 -11 4 -20 12 -13 11 -14 16 -4 22 13 8 57 2 70 -10z m1178 15 c0 -3 -4
-8 -10 -11 -5 -3 -10 -1 -10 4 0 6 5 11 10 11 6 0 10 -2 10 -4z m-1375 -94
c-19 -4 -57 17 -50 28 3 5 19 1 35 -8 19 -11 25 -18 15 -20z m-60 -2 c-3 -5
-10 -10 -16 -10 -5 0 -9 5 -9 10 0 6 7 10 16 10 8 0 12 -4 9 -10z m192 -6 c2
-5 -13 -11 -32 -12 -38 -3 -58 4 -51 17 7 11 79 7 83 -5z m113 -8 c0 -11 -19
-15 -25 -6 -3 5 1 10 9 10 9 0 16 -2 16 -4z m1085 -18 c-4 -34 -4 -35 -20 -35
-20 0 -19 16 2 39 20 23 21 23 18 -4z m-1042 -61 c7 -31 6 -42 -6 -54 -14 -14
-20 -14 -61 2 -38 15 -44 20 -36 35 5 10 6 20 2 24 -3 4 1 4 10 1 11 -4 24 1
35 14 25 30 46 22 56 -22z m-173 23 c0 -5 -5 -10 -11 -10 -5 0 -7 5 -4 10 3 6
8 10 11 10 2 0 4 -4 4 -10z m249 -42 c0 -27 -2 -29 -8 -13 -5 11 -6 26 -4 33
8 21 13 13 12 -20z m-337 -50 c7 -39 10 -288 3 -288 -15 0 -65 32 -78 50 -14
19 -14 39 -3 170 2 25 4 55 5 68 1 18 7 22 35 22 27 0 34 -4 38 -22z m109 -66
c1 -37 2 -78 4 -92 2 -14 4 -47 6 -75 l4 -50 -44 -3 -43 -3 6 83 c3 46 6 112
7 148 2 69 12 85 41 69 14 -8 18 -23 19 -77z m-237 36 c3 -24 7 -74 9 -111 4
-55 2 -67 -9 -63 -8 3 -36 8 -62 12 -59 7 -78 24 -63 52 6 11 11 34 11 50 0
22 11 39 40 66 53 48 67 46 74 -6z m1111 20 c9 -26 13 -238 5 -243 -5 -3 -17
6 -28 20 -11 14 -25 25 -30 25 -22 0 -52 53 -51 89 0 20 -1 45 -3 55 -2 14 9
25 41 42 50 27 60 29 66 12z m-639 -98 c0 -85 -2 -100 -15 -100 -17 0 -16 -1
-12 168 1 18 6 32 14 32 9 0 12 -27 13 -100z m510 74 c-3 -9 -6 -20 -6 -25 0
-6 -4 -8 -9 -5 -12 8 -2 46 11 46 6 0 7 -7 4 -16z m712 -40 c0 -59 -8 -72 -68
-108 l-32 -18 6 41 c3 22 9 59 12 81 6 38 22 51 75 59 3 1 6 -24 7 -55z
m-1287 -136 c-3 -4 -18 -9 -32 -12 -25 -4 -27 -2 -27 37 -1 30 7 53 26 81 l27
40 6 -70 c3 -38 3 -72 0 -76z m824 58 c11 -50 13 -116 4 -122 -6 -3 -25 -3
-43 0 l-32 6 1 63 c1 34 3 79 4 101 l1 38 30 -32 c17 -18 32 -42 35 -54z
m-929 -29 c3 -67 -5 -97 -28 -97 -5 0 -7 40 -4 98 5 117 4 111 17 89 6 -11 13
-51 15 -90z m1251 21 l8 -73 -40 -22 c-22 -11 -41 -20 -43 -18 -3 3 -5 97 -3
148 1 16 30 35 58 36 7 1 15 -28 20 -71z m-103 -39 c0 -82 0 -83 -27 -90 -15
-4 -29 -4 -32 1 -2 4 -29 5 -59 3 l-55 -4 4 33 c3 18 7 54 10 80 8 58 21 67
98 63 l60 -4 1 -82z m-369 -109 c3 -5 1 -10 -4 -10 -6 0 -11 5 -11 10 0 6 2
10 4 10 3 0 8 -4 11 -10z"/>
<path d="M866 1291 c-3 -5 3 -11 13 -14 14 -3 18 -1 14 9 -6 16 -19 18 -27 5z"/>
<path d="M183 1465 c0 -44 2 -61 4 -37 2 23 2 59 0 80 -2 20 -4 1 -4 -43z"/>
<path d="M1370 1350 c0 -11 2 -20 4 -20 2 0 6 9 9 20 3 11 1 20 -4 20 -5 0 -9
-9 -9 -20z"/>
<path d="M1370 1279 c0 -5 5 -7 10 -4 6 3 10 8 10 11 0 2 -4 4 -10 4 -5 0 -10
-5 -10 -11z"/>
<path d="M1011 944 c0 -11 3 -14 6 -6 3 7 2 16 -1 19 -3 4 -6 -2 -5 -13z"/>
<path d="M952 736 c1 -14 5 -23 9 -20 7 4 0 44 -7 44 -2 0 -3 -11 -2 -24z"/>
<path d="M950 679 c0 -11 4 -18 10 -14 5 3 7 12 3 20 -7 21 -13 19 -13 -6z"/>
<path d="M1992 670 c0 -14 2 -19 5 -12 2 6 2 18 0 25 -3 6 -5 1 -5 -13z"/>
<path d="M953 615 c0 -8 4 -12 9 -9 5 3 6 10 3 15 -9 13 -12 11 -12 -6z"/>
<path d="M681 603 c0 -5 4 -17 9 -28 8 -17 8 -16 7 8 -1 15 -5 27 -9 27 -4 0
-8 -3 -7 -7z"/>
<path d="M685 541 c-3 -5 -2 -12 3 -15 5 -3 9 1 9 9 0 17 -3 19 -12 6z"/>
<path d="M691 464 c0 -11 3 -14 6 -6 3 7 2 16 -1 19 -3 4 -6 -2 -5 -13z"/>
<path d="M2159 458 c-5 -12 -5 -78 0 -78 4 0 8 18 9 40 2 22 0 40 -3 40 -3 0
-6 -1 -6 -2z"/>
<path d="M692 380 c0 -14 2 -19 5 -12 2 6 2 18 0 25 -3 6 -5 1 -5 -13z"/>
</g>
</svg>
